<svg width="2721" height="1051" viewBox="0 0 2721 1051" fill="none" xmlns="http://www.w3.org/2000/svg">
<path d="M2631 214.995L2258.5 130.495C1510.5 -47 2010 65.9948 1674.5 214.995C1339 363.995 1386 686.995 1167 835.995C948 984.995 844.5 815.995 654.5 772.995C502.5 738.595 402.5 772.995 371 798.995C339.5 824.995 0.5 1050.5 0.5 1050.5" stroke="#D0D0D0"/>
<path d="M2720.5 176.132L2348 91.6319C1600 -85.8629 2099.5 27.1319 1764 176.132C1428.5 325.132 1475.5 648.132 1256.5 797.132C1037.5 946.132 934 777.132 744 734.132C592 699.732 492 734.132 460.5 760.132C429 786.132 90 1011.64 90 1011.64" stroke="#EFECD1"/>
</svg>
